<?xml version="1.0" standalone="no"?>
<!DOCTYPE svg PUBLIC "-//W3C//DTD SVG 20010904//EN"
 "http://www.w3.org/TR/2001/REC-SVG-20010904/DTD/svg10.dtd">
<svg version="1.0" xmlns="http://www.w3.org/2000/svg"
 width="300.000000pt" height="300.000000pt" viewBox="0 0 300.000000 300.000000"
 preserveAspectRatio="xMidYMid meet"> 
<metadata>
Created by potrace 1.10, written by Peter Selinger 2001-2011
</metadata>
<g transform="translate(0.000000,300.000000) scale(0.100000,-0.100000)"
fill="#000000" stroke="none">
<path d="M1229 1713 c-6 -16 -22 -57 -36 -93 -14 -36 -29 -71 -35 -77 -8 -10
-4 -13 18 -13 19 0 25 3 16 8 -9 7 -10 15 -3 35 15 38 66 39 75 2 4 -14 5 -29
2 -33 -2 -4 15 -7 39 -8 42 -1 43 0 30 20 -7 12 -26 58 -41 103 -30 87 -47
101 -65 56z m15 -75 c6 -25 3 -28 -18 -28 -23 0 -24 2 -13 35 11 38 21 36 31
-7z"/>
<path d="M1363 1734 c15 -5 17 -19 17 -99 0 -65 -4 -95 -12 -99 -7 -2 17 -4
53 -2 102 3 148 46 135 125 -9 60 -35 76 -129 78 -45 1 -74 0 -64 -3z m121
-26 c24 -34 21 -123 -4 -148 -41 -41 -50 -28 -50 75 0 87 2 95 19 95 11 0 27
-10 35 -22z"/>
<path d="M1578 1733 c8 -3 12 -33 12 -98 0 -66 -4 -95 -12 -98 -7 -2 25 -4 72
-3 l85 1 3 35 3 35 -23 -27 c-13 -14 -33 -29 -45 -33 -23 -6 -23 -5 -23 89 0
88 2 96 19 96 11 0 29 -12 40 -26 l21 -27 0 32 0 31 -82 -1 c-46 0 -77 -3 -70
-6z"/>
<path d="M1752 1730 c9 -6 28 -30 43 -55 l26 -46 -22 -37 c-12 -20 -29 -43
-37 -49 -13 -11 -10 -13 19 -13 22 0 29 3 21 9 -12 7 -11 14 2 40 19 35 29 33
51 -9 11 -22 12 -29 2 -33 -6 -2 12 -5 40 -5 51 -1 52 0 35 18 -9 10 -28 38
-41 62 l-23 43 23 37 c13 20 31 39 39 41 8 3 -3 5 -25 5 -22 0 -32 -2 -22 -5
16 -4 16 -6 0 -34 -10 -16 -20 -29 -24 -29 -10 0 -30 51 -24 61 4 5 -17 9 -47
9 -39 -1 -49 -3 -36 -10z"/>
<path d="M1677 1655 c-10 -14 -13 -25 -7 -25 6 0 15 -10 20 -22 7 -19 9 -14 9
25 1 26 0 47 -1 47 -2 0 -11 -12 -21 -25z"/>
<path d="M860 1509 c0 -21 41 -79 56 -79 19 0 18 5 -8 51 -20 37 -48 53 -48
28z"/>
<path d="M1280 1500 c-25 -3 -55 -11 -67 -18 -38 -21 -64 -86 -70 -171 -2 -42
-9 -89 -15 -104 -13 -34 -48 -50 -81 -38 -45 17 -48 30 -31 132 4 26 1 44 -10
62 -11 16 -15 34 -10 51 4 18 2 28 -9 32 -19 7 -207 -104 -207 -122 0 -17 27
-37 40 -29 5 3 10 2 10 -3 0 -23 59 -72 87 -72 19 0 36 -9 53 -31 52 -63 111
-75 160 -31 35 30 49 78 50 160 0 92 30 139 98 152 l37 6 -3 -88 c-2 -48 -1
-88 3 -88 16 0 66 32 75 49 5 11 10 36 10 56 0 72 -42 105 -120 95z m-345
-170 c13 11 15 6 14 -31 -1 -42 -1 -43 -12 -18 -7 14 -18 24 -24 22 -9 -3 -13
6 -12 29 0 31 1 31 10 9 8 -19 12 -21 24 -11z"/>
<path d="M1410 1482 c15 -5 13 -179 -2 -185 -7 -3 21 -4 62 -3 l75 1 3 34 4
35 -30 -32 c-17 -18 -35 -32 -41 -32 -7 0 -11 32 -11 91 0 77 2 90 15 85 8 -3
15 -1 15 3 0 5 -22 8 -50 8 -27 -1 -45 -3 -40 -5z"/>
<path d="M1570 1407 c4 -67 8 -82 29 -98 28 -22 69 -25 97 -5 15 12 20 30 24
100 5 80 4 86 -14 86 -16 0 -17 -3 -8 -12 7 -7 12 -39 12 -75 0 -50 -4 -67
-20 -83 -22 -22 -29 -24 -50 -10 -18 11 -28 144 -12 163 8 10 2 12 -26 12
l-37 0 5 -78z"/>
<path d="M1771 1462 c-23 -22 -31 -40 -31 -66 0 -78 42 -113 122 -101 42 6 44
8 40 37 -3 19 1 33 9 39 9 6 -4 8 -36 8 -27 0 -44 -3 -37 -6 6 -2 12 -20 12
-40 0 -27 -4 -34 -17 -31 -29 5 -44 48 -39 102 3 28 12 56 20 64 19 19 50 7
67 -26 l13 -27 4 28 c2 16 2 31 -1 33 -2 2 -24 7 -50 10 -42 6 -49 4 -76 -24z"/>
<path d="M760 1452 c0 -12 50 -82 59 -82 19 0 19 15 -2 51 -12 22 -30 39 -39
39 -10 0 -18 -3 -18 -8z"/>
</g>
</svg>
