<?xml version="1.0" standalone="no"?>
<!DOCTYPE svg PUBLIC "-//W3C//DTD SVG 20010904//EN"
 "http://www.w3.org/TR/2001/REC-SVG-20010904/DTD/svg10.dtd">
<svg version="1.0" xmlns="http://www.w3.org/2000/svg"
 width="300.000000pt" height="214.000000pt" viewBox="0 0 300.000000 214.000000"
 preserveAspectRatio="xMidYMid meet">
<metadata>
Created by potrace 1.10, written by Peter Selinger 2001-2011
</metadata>
<g transform="translate(0.000000,214.000000) scale(0.100000,-0.100000)"
fill="#000000" stroke="none">
<path d="M1035 1505 c-71 -192 -91 -235 -106 -235 -11 0 -19 -4 -19 -10 0 -6
27 -10 61 -10 37 0 58 4 54 10 -3 6 -17 10 -30 10 l-24 0 25 68 c14 37 26 68
27 69 1 1 33 3 70 4 l69 2 23 -69 c30 -86 30 -86 0 -78 -15 4 -25 2 -25 -5 0
-7 38 -11 115 -11 70 0 115 4 115 10 0 6 -8 10 -17 10 -14 0 -36 50 -103 235
l-85 235 -31 0 -31 0 -88 -235z m145 135 c6 -21 15 -42 19 -45 9 -5 27 -82 23
-97 -1 -5 2 -8 7 -8 12 0 63 -139 55 -151 -3 -5 -1 -9 4 -9 5 0 12 -9 15 -20
4 -15 0 -20 -15 -20 -30 0 -58 19 -58 40 0 10 -10 35 -21 55 -12 20 -23 49
-24 65 -1 17 -7 36 -12 43 -5 6 -18 39 -28 72 -10 33 -19 62 -20 65 -2 3 1 15
6 28 13 35 37 27 49 -18z m-30 -202 c0 -4 -27 -8 -61 -8 -45 0 -59 3 -56 13 3
6 18 48 33 92 l27 80 29 -85 c15 -46 28 -88 28 -92z"/>
<path d="M1405 1730 c4 -6 16 -10 26 -7 18 5 19 -4 19 -228 0 -224 -1 -233
-19 -228 -10 3 -22 0 -25 -6 -12 -18 259 -14 323 5 106 31 161 114 161 241 0
101 -35 164 -115 206 -35 19 -61 22 -209 25 -128 3 -167 1 -161 -8z m299 -37
c61 -61 62 -320 2 -390 -15 -18 -37 -28 -69 -33 l-47 -7 0 231 0 231 45 -3
c30 -3 52 -12 69 -29z m-159 -198 c0 -188 -1 -200 -19 -203 -10 -2 -23 2 -27
10 -10 14 -11 361 -2 385 3 8 15 13 27 11 21 -3 21 -7 21 -203z m269 140 c6
-11 14 -23 19 -26 22 -16 25 -180 4 -213 -18 -26 -53 -66 -58 -66 -2 0 -4 74
-4 165 0 136 2 165 14 163 8 -2 19 -12 25 -23z"/>
<path d="M1930 1730 c0 -5 10 -10 23 -10 l22 0 -3 -225 c-3 -216 -4 -225 -22
-225 -11 0 -20 -4 -20 -10 0 -6 71 -10 194 -10 l194 0 4 76 c2 42 0 78 -4 80
-4 3 -16 -15 -26 -39 -25 -56 -71 -89 -133 -95 l-49 -5 0 112 0 111 25 0 c31
0 75 -41 75 -69 0 -11 5 -23 10 -26 6 -4 10 32 10 100 0 68 -4 104 -10 100 -5
-3 -10 -13 -10 -21 0 -24 -47 -64 -75 -64 l-25 0 0 105 0 105 44 0 c52 0 94
-30 120 -85 16 -34 44 -51 32 -19 -3 9 -6 40 -6 70 l0 54 -185 0 c-117 0 -185
-4 -185 -10z m135 -41 c4 -6 9 -90 11 -188 3 -144 1 -181 -10 -196 -12 -16
-18 -18 -33 -9 -16 10 -18 30 -20 200 -1 103 0 192 3 196 7 12 42 10 49 -3z"/>
<path d="M2340 1731 c0 -5 10 -11 22 -13 16 -2 40 -35 90 -122 38 -66 67 -124
66 -130 -2 -6 -28 -53 -58 -103 -48 -81 -59 -93 -82 -93 -16 0 -28 -4 -28 -10
0 -6 32 -10 75 -10 49 0 75 4 75 11 0 8 -12 10 -35 6 -19 -3 -35 -4 -35 -2 0
2 23 42 51 89 44 75 69 104 69 78 0 -4 20 -43 45 -86 25 -44 45 -81 45 -83 0
-2 -11 -1 -25 3 -15 4 -25 2 -25 -5 0 -7 40 -11 126 -11 81 0 123 4 119 10 -3
6 -14 10 -25 10 -18 0 -34 22 -127 181 l-51 86 30 44 c16 24 43 65 59 92 22
36 35 47 54 47 14 0 25 5 25 10 0 6 -32 10 -75 10 -48 0 -75 -4 -75 -11 0 -7
14 -10 35 -7 19 2 35 2 35 0 0 -8 -95 -161 -100 -162 -4 0 -76 131 -88 162 -2
5 8 6 22 2 16 -4 26 -2 26 5 0 7 -39 11 -120 11 -67 0 -120 -4 -120 -9z m155
-37 c9 -4 27 -28 40 -54 13 -26 38 -68 55 -93 16 -25 30 -49 30 -55 0 -5 7
-15 15 -22 9 -7 14 -19 11 -26 -3 -7 1 -15 9 -17 13 -6 65 -106 65 -126 0 -6
-11 -11 -24 -11 -18 0 -32 13 -55 48 -17 27 -31 54 -31 61 0 7 -4 9 -10 6 -5
-3 -10 0 -10 8 0 8 -6 20 -14 26 -8 7 -17 24 -21 39 -4 15 -14 35 -22 45 -9 9
-12 17 -8 17 4 0 1 8 -7 18 -32 35 -77 130 -65 136 18 7 24 7 42 0z"/>
<path d="M228 1209 c-29 -16 -21 -43 38 -138 l55 -89 29 16 c17 9 30 21 30 26
0 10 -64 119 -97 164 -26 35 -30 36 -55 21z"/>
<path d="M1160 1166 c-76 -22 -96 -33 -139 -77 -88 -88 -119 -186 -131 -409
-11 -218 -23 -251 -101 -299 -78 -47 -188 -9 -235 81 -13 24 -12 28 4 37 16 9
16 11 -1 40 -17 29 -17 30 8 66 49 73 46 152 -9 244 l-36 59 17 36 c16 35 16
37 -4 64 -30 41 -70 40 -135 -1 -29 -19 -88 -55 -130 -81 -240 -143 -248 -149
-248 -195 0 -31 49 -63 85 -57 27 5 32 2 53 -37 54 -103 129 -153 214 -145 27
2 36 -2 50 -24 12 -18 23 -25 36 -21 14 3 22 -1 27 -17 12 -36 66 -90 119
-118 63 -32 151 -36 208 -8 109 53 158 165 158 366 1 273 97 429 266 430 27 0
54 4 60 10 6 6 8 -68 6 -200 l-3 -210 26 0 c70 0 153 72 181 158 40 124 -17
260 -128 306 -43 18 -78 21 -78 6 0 -7 -6 -7 -19 0 -25 13 -65 12 -121 -4z
m215 -42 c61 -23 95 -79 102 -166 5 -60 3 -75 -17 -111 -39 -71 -62 -92 -92
-89 l-28 3 -1 152 c0 84 -2 159 -4 167 -2 8 -7 25 -11 38 -8 26 -2 27 51 6z
m-883 -134 c6 0 7 -15 3 -40 -6 -38 11 -110 26 -110 4 0 10 -12 14 -27 3 -15
11 -31 17 -34 12 -8 12 -110 0 -118 -18 -13 -43 -95 -37 -122 4 -16 4 -38 0
-49 -7 -23 -33 -27 -41 -5 -4 8 -12 15 -19 15 -7 0 -26 7 -41 15 -16 8 -43 15
-60 15 -33 0 -94 26 -94 40 0 5 -9 12 -20 15 -11 3 -20 13 -20 20 0 25 -84
105 -111 105 -33 0 -55 35 -35 55 8 8 17 15 20 15 3 0 17 11 31 24 16 15 33
22 45 19 13 -4 20 0 20 10 0 8 8 18 18 21 9 4 35 18 57 31 22 14 48 28 58 31
9 4 17 9 17 13 0 4 16 15 35 24 19 9 35 21 35 26 0 11 38 20 58 15 8 -2 18 -4
24 -4z"/>
<path d="M324 818 c9 -42 25 -78 33 -78 5 0 17 7 27 15 11 8 23 15 28 15 4 0
8 -37 10 -82 3 -83 3 -83 19 -53 19 36 14 112 -9 138 -8 9 -26 17 -39 17 -13
0 -35 12 -49 28 l-25 27 5 -27z"/>
<path d="M283 815 c-6 -11 -9 -44 -8 -73 2 -54 18 -81 49 -86 9 -1 32 -18 52
-37 19 -19 33 -27 31 -19 -3 8 -11 36 -17 63 -14 52 -17 54 -46 32 -30 -23
-34 -19 -35 43 0 31 -4 66 -8 77 -8 19 -8 19 -18 0z"/>
<path d="M2477 1127 c-98 -32 -146 -107 -147 -228 0 -106 31 -168 103 -203 57
-29 127 -34 202 -14 36 10 50 10 65 0 19 -12 20 -9 20 83 0 78 3 95 15 95 8 0
15 3 15 8 0 4 -43 7 -95 7 -52 0 -95 -3 -95 -7 0 -5 9 -8 20 -8 18 0 20 -7 20
-80 0 -75 -2 -81 -24 -91 -32 -15 -76 6 -95 46 -17 34 -27 209 -17 280 20 131
142 140 207 14 21 -42 45 -53 35 -16 -3 12 -6 42 -6 67 l0 45 -37 1 c-21 1
-63 4 -93 7 -34 4 -70 2 -93 -6z m-46 -121 c-6 -7 -10 -66 -10 -132 0 -65 0
-123 0 -127 -2 -20 -34 28 -37 55 -2 17 -9 37 -14 44 -13 14 -10 104 2 104 4
0 8 10 8 22 0 28 28 58 46 51 10 -4 11 -9 5 -17z m259 -188 c0 -38 -14 -88
-24 -88 -19 0 -36 49 -26 76 10 25 50 34 50 12z"/>
<path d="M1510 1120 c0 -5 9 -10 20 -10 19 0 20 -7 20 -210 0 -203 -1 -210
-20 -210 -11 0 -20 -3 -20 -8 0 -7 337 -8 344 -1 8 9 16 149 9 149 -4 0 -20
-23 -35 -50 -31 -56 -60 -78 -112 -87 l-36 -6 0 212 0 211 35 0 c19 0 35 5 35 
10 0 6 -47 10 -120 10 -73 0 -120 -4 -120 -10z m128 -221 c-3 -172 -3 -174
-25 -177 -22 -3 -23 0 -24 65 -2 225 2 278 18 291 9 6 21 8 25 4 5 -5 7 -87 6
-183z"/>
<path d="M1885 1120 c3 -5 12 -10 20 -10 10 0 14 -36 17 -167 4 -196 13 -223
81 -254 53 -23 156 -25 202 -3 57 27 65 59 65 253 0 164 1 171 20 171 11 0 20
5 20 10 0 6 -22 10 -50 10 -27 0 -50 -4 -50 -10 0 -5 9 -10 20 -10 19 0 20 -7
20 -170 0 -187 -7 -216 -55 -238 -41 -19 -81 -14 -112 12 l-28 24 -3 186 c-3
180 -3 186 17 186 11 0 23 5 26 10 4 6 -33 10 -105 10 -72 0 -109 -4 -105 -10z
m115 -45 c8 -10 11 -60 11 -166 -1 -84 -4 -155 -6 -160 -3 -4 1 -10 7 -12 10
-4 10 -6 1 -6 -7 -1 -20 11 -30 25 -14 21 -18 54 -20 164 -4 165 4 195 37 155z"/>
<path d="M7 1073 c-22 -22 2 -97 61 -185 28 -43 37 -45 70 -20 l23 18 -33 51
c-18 28 -45 72 -60 97 -26 43 -45 55 -61 39z"/>
</g>
</svg>
